<svg xmlns="http://www.w3.org/2000/svg" viewBox="0 0 114.9 106">
<!-- SVG created with Arrow, by QuiverAI (https://quiver.ai) -->
  <style type="text/css">.cls-0 {fill:url(#SVGID_1_);}
.cls-1 {fill:#8FB7FF;}
.cls-2 {fill:url(#SVGID_2_);}</style>
  <linearGradient id="SVGID_1_" x1="59.21" x2="112.5" y1="66.52" y2="66.52" gradientUnits="userSpaceOnUse">
    <stop stop-color="#1E4FEA" offset="0"/>
    <stop stop-color="#3F71FC" offset="1"/>
  </linearGradient>
  <path class="cls-0" d="m109 69-16-27.1c-2.4-1.9-4.8-1.9-7.1-1.9-4.1 0-8.4 1.4-12.9 5.4-4.3 4.2-9.5 11.1-13.8 17.6 2.9 6.6 10.8 20.6 14.3 26.2 4.5 6.8 9.9 12.1 18.9 12.1s21.5-6.3 20-21.3c-0.3-3.8-1.8-7.7-3.4-11z"/>
  <path class="cls-1" d="m77.1 15c-2.7-4-8-9.1-14.8-10.1-8.9-1.4-17.6 0.7-23.8 9.1l-1.5 2.2-31.6 53c-1.8 3.3-3.1 7.4-3.1 12.4 0.4 9.8 7.7 18.2 17.1 19.6 9.2 1.2 17.9-1.5 23.2-8.4 1-1.3 2-2.8 3-4.6l13.5-25c6.8-10.3 13.6-17.8 19-20.8 5.6-3 11.5-3.8 14.9-0.8l-15.9-26.6z"/>
  <linearGradient id="SVGID_2_" x1="2.285" x2="92.98" y1="53.15" y2="53.15" gradientUnits="userSpaceOnUse">
    <stop stop-color="#6D97FD" offset="0"/>
    <stop stop-color="#9ABFFF" offset="1"/>
  </linearGradient>
  <path class="cls-2" d="m59.2 63c5.8-9.8 13.7-18 18.7-20.5 4.5-2.6 11.2-4.1 15.1-0.9l-15.6-26.2c-1.9-2.9-5.3-6.7-10.7-9-4.8-2-12-2.2-16.3-0.8-4.8 1.4-8.7 4.3-11.4 8-1.1 1.3-2.3 3.4-2.9 4.5l-30.7 50.9c-1.8 3.5-3.3 7.6-3.1 12.6 0.4 9.9 7.3 18.2 17.1 19.5 8.2 1 15.5-1.4 20.3-6 2-1.9 3.7-4.3 5.5-7.2l14-24.9z"/>
</svg>